<?xml version="1.0" encoding="UTF-8"?>
<!DOCTYPE svg PUBLIC "-//W3C//DTD SVG 1.1//EN" "http://www.w3.org/Graphics/SVG/1.1/DTD/svg11.dtd">
<svg version="1.1" xmlns="http://www.w3.org/2000/svg" xmlns:xlink="http://www.w3.org/1999/xlink" x="0" y="0" width="541.5" height="88.5" viewBox="0, 0, 541.5, 88.5">
  <defs>
    <linearGradient id="Gradient_1" gradientUnits="userSpaceOnUse" x1="645.828" y1="78.7" x2="1187.328" y2="78.7">
      <stop offset="0.403" stop-color="#959595"/>
      <stop offset="0.899" stop-color="#FFE12B"/>
    </linearGradient>
  </defs>
  <g id="Layer_1" transform="translate(-645.828, -34.45)">
    <g>
      <path d="M645.828,122.95 L1187.328,122.95 L1187.328,34.45 L645.828,34.45 z" fill="url(#Gradient_1)"/>
      <path d="M708.772,66.912 L706.053,68.998 Q703.803,66.068 700.651,64.557 Q697.498,63.045 693.725,63.045 Q689.6,63.045 686.084,65.025 Q682.569,67.006 680.635,70.346 Q678.702,73.685 678.702,77.857 Q678.702,84.162 683.026,88.381 Q687.35,92.6 693.936,92.6 Q701.178,92.6 706.053,86.928 L708.772,88.99 Q706.194,92.271 702.338,94.064 Q698.483,95.857 693.725,95.857 Q684.678,95.857 679.452,89.834 Q675.069,84.748 675.069,77.553 Q675.069,69.982 680.377,64.814 Q685.686,59.646 693.678,59.646 Q698.506,59.646 702.397,61.557 Q706.288,63.467 708.772,66.912 z" fill="#FFFFFF"/>
      <path d="M715.686,60.514 L719.155,60.514 L719.155,91.662 L732.397,91.662 L732.397,94.99 L715.686,94.99 z" fill="#FFFFFF"/>
      <path d="M734.436,63.865 L734.436,60.514 L753.35,60.514 L753.35,63.865 L745.663,63.865 L745.663,94.99 L742.147,94.99 L742.147,63.865 z" fill="#FFFFFF"/>
      <path d="M791.553,66.303 L788.881,68.834 Q785.998,65.998 782.565,64.533 Q779.131,63.068 775.873,63.068 Q771.819,63.068 768.151,65.06 Q764.483,67.053 762.467,70.463 Q760.452,73.873 760.452,77.67 Q760.452,81.56 762.538,85.064 Q764.623,88.568 768.303,90.572 Q771.983,92.576 776.366,92.576 Q781.686,92.576 785.366,89.576 Q789.045,86.576 789.725,81.795 L778.733,81.795 L778.733,78.467 L793.592,78.467 Q793.545,86.459 788.846,91.158 Q784.147,95.857 776.272,95.857 Q766.709,95.857 761.131,89.342 Q756.842,84.326 756.842,77.74 Q756.842,72.842 759.303,68.623 Q761.764,64.404 766.053,62.025 Q770.342,59.646 775.756,59.646 Q780.139,59.646 784.006,61.228 Q787.873,62.81 791.553,66.303 z" fill="#FFFFFF"/>
      <path d="M1054.006,71.318 L1050.702,71.318 Q1050.842,66.209 1054.112,62.928 Q1057.381,59.646 1062.186,59.646 Q1066.944,59.646 1069.885,62.717 Q1072.827,65.787 1072.827,69.959 Q1072.827,72.889 1071.42,75.455 Q1070.014,78.021 1065.959,82.404 L1057.381,91.662 L1073.295,91.662 L1073.295,94.99 L1049.881,94.99 L1063.053,80.764 Q1067.061,76.475 1068.268,74.4 Q1069.475,72.326 1069.475,70.029 Q1069.475,67.123 1067.307,65.025 Q1065.139,62.928 1061.999,62.928 Q1058.694,62.928 1056.502,65.131 Q1054.311,67.334 1054.006,71.318 z" fill="#FFFFFF"/>
      <path d="M1076.577,77.764 Q1076.577,70.943 1078.042,67.217 Q1079.506,63.49 1082.178,61.568 Q1084.85,59.646 1088.155,59.646 Q1091.506,59.646 1094.225,61.58 Q1096.944,63.514 1098.526,67.381 Q1100.108,71.248 1100.108,77.764 Q1100.108,84.256 1098.549,88.1 Q1096.991,91.943 1094.249,93.9 Q1091.506,95.857 1088.155,95.857 Q1084.85,95.857 1082.202,93.959 Q1079.553,92.06 1078.065,88.299 Q1076.577,84.537 1076.577,77.764 z M1079.834,77.834 Q1079.834,83.67 1080.877,86.658 Q1081.92,89.646 1083.959,91.193 Q1085.999,92.74 1088.272,92.74 Q1090.569,92.74 1092.561,91.228 Q1094.553,89.717 1095.584,86.693 Q1096.874,83.014 1096.874,77.834 Q1096.874,72.631 1095.725,69.314 Q1094.577,65.998 1092.549,64.463 Q1090.522,62.928 1088.272,62.928 Q1085.975,62.928 1083.959,64.463 Q1081.944,65.998 1080.889,68.986 Q1079.834,71.975 1079.834,77.834 z" fill="#FFFFFF"/>
      <path d="M1110.538,60.514 L1117.311,60.514 L1117.311,94.99 L1113.889,94.99 L1113.889,63.889 L1108.475,63.889 z" fill="#FFFFFF"/>
      <path d="M1131.702,60.514 L1153.569,60.514 L1135.124,95.857 L1132.288,94.404 L1148.225,63.771 L1131.702,63.771 z" fill="#FFFFFF"/>
      <path d="M892.918,46.99 L892.918,106.99 L925.503,74.503" fill-opacity="0" stroke="#FFFFFF" stroke-width="4"/>
      <g>
        <path d="M892.709,56.561 C888.687,56.561 885.426,53.301 885.426,49.279 C885.426,45.256 888.687,41.996 892.709,41.996 C896.731,41.996 899.992,45.256 899.992,49.279 C899.992,53.301 896.731,56.561 892.709,56.561 z" fill="#FFFFFF"/>
        <path d="M892.709,56.561 C888.687,56.561 885.426,53.301 885.426,49.279 C885.426,45.256 888.687,41.996 892.709,41.996 C896.731,41.996 899.992,45.256 899.992,49.279 C899.992,53.301 896.731,56.561 892.709,56.561 z" fill-opacity="0" stroke="#FFFFFF" stroke-width="1"/>
      </g>
      <g>
        <path d="M925.219,81.72 C921.197,81.72 917.936,78.459 917.936,74.437 C917.936,70.415 921.197,67.154 925.219,67.154 C929.241,67.154 932.502,70.415 932.502,74.437 C932.502,78.459 929.241,81.72 925.219,81.72 z" fill="#FFFFFF"/>
        <path d="M925.219,81.72 C921.197,81.72 917.936,78.459 917.936,74.437 C917.936,70.415 921.197,67.154 925.219,67.154 C929.241,67.154 932.502,70.415 932.502,74.437 C932.502,78.459 929.241,81.72 925.219,81.72 z" fill-opacity="0" stroke="#FFFFFF" stroke-width="1"/>
      </g>
    </g>
  </g>
</svg>
